<mxfile host="app.diagrams.net" agent="Mozilla/5.0 (Windows NT 10.0; Win64; x64) AppleWebKit/537.36 (KHTML, like Gecko) Chrome/131.0.0.0 Safari/537.36 Edg/131.0.0.0" version="25.0.1">
  <diagram name="Page-1" id="eiVfjTH3touZLWz6EHQY">
    <mxGraphModel dx="1666" dy="749" grid="1" gridSize="10" guides="1" tooltips="1" connect="1" arrows="1" fold="1" page="1" pageScale="1" pageWidth="850" pageHeight="1100" math="0" shadow="0">
      <root>
        <mxCell id="0" />
        <mxCell id="1" parent="0" />
        <mxCell id="tyjR8he37Etmvqs3X0Is-12" style="edgeStyle=orthogonalEdgeStyle;rounded=0;orthogonalLoop=1;jettySize=auto;html=1;" parent="1" source="tyjR8he37Etmvqs3X0Is-2" target="tyjR8he37Etmvqs3X0Is-3" edge="1">
          <mxGeometry relative="1" as="geometry" />
        </mxCell>
        <mxCell id="tyjR8he37Etmvqs3X0Is-2" value="Download&lt;div&gt;component&lt;/div&gt;" style="rounded=0;whiteSpace=wrap;html=1;" parent="1" vertex="1">
          <mxGeometry x="260" y="240" width="120" height="60" as="geometry" />
        </mxCell>
        <mxCell id="qQq1sUfRrQj8mtIDSRJr-1" style="edgeStyle=orthogonalEdgeStyle;rounded=0;orthogonalLoop=1;jettySize=auto;html=1;" parent="1" source="tyjR8he37Etmvqs3X0Is-3" target="tyjR8he37Etmvqs3X0Is-4" edge="1">
          <mxGeometry relative="1" as="geometry" />
        </mxCell>
        <mxCell id="tyjR8he37Etmvqs3X0Is-3" value="Testing&lt;div&gt;component&lt;/div&gt;" style="rounded=0;whiteSpace=wrap;html=1;" parent="1" vertex="1">
          <mxGeometry x="420" y="240" width="120" height="60" as="geometry" />
        </mxCell>
        <mxCell id="tyjR8he37Etmvqs3X0Is-4" value="Database" style="shape=cylinder3;whiteSpace=wrap;html=1;boundedLbl=1;backgroundOutline=1;size=15;" parent="1" vertex="1">
          <mxGeometry x="590" y="110" width="60" height="80" as="geometry" />
        </mxCell>
        <mxCell id="tyjR8he37Etmvqs3X0Is-15" value="Configuration handler" style="swimlane;whiteSpace=wrap;html=1;" parent="1" vertex="1">
          <mxGeometry x="250" width="300" height="220" as="geometry" />
        </mxCell>
        <mxCell id="tyjR8he37Etmvqs3X0Is-24" style="edgeStyle=orthogonalEdgeStyle;rounded=0;orthogonalLoop=1;jettySize=auto;html=1;exitX=1;exitY=0.5;exitDx=0;exitDy=0;entryX=0;entryY=0.5;entryDx=0;entryDy=0;" parent="tyjR8he37Etmvqs3X0Is-15" source="tyjR8he37Etmvqs3X0Is-20" target="tyjR8he37Etmvqs3X0Is-21" edge="1">
          <mxGeometry relative="1" as="geometry" />
        </mxCell>
        <mxCell id="tyjR8he37Etmvqs3X0Is-20" value="Configuration&lt;div&gt;file&lt;/div&gt;" style="rounded=0;whiteSpace=wrap;html=1;" parent="tyjR8he37Etmvqs3X0Is-15" vertex="1">
          <mxGeometry x="10" y="40" width="120" height="60" as="geometry" />
        </mxCell>
        <mxCell id="tyjR8he37Etmvqs3X0Is-27" style="edgeStyle=orthogonalEdgeStyle;rounded=0;orthogonalLoop=1;jettySize=auto;html=1;" parent="tyjR8he37Etmvqs3X0Is-15" source="tyjR8he37Etmvqs3X0Is-21" target="tyjR8he37Etmvqs3X0Is-23" edge="1">
          <mxGeometry relative="1" as="geometry" />
        </mxCell>
        <mxCell id="tyjR8he37Etmvqs3X0Is-28" style="edgeStyle=orthogonalEdgeStyle;rounded=0;orthogonalLoop=1;jettySize=auto;html=1;exitX=0.5;exitY=1;exitDx=0;exitDy=0;" parent="tyjR8he37Etmvqs3X0Is-15" source="tyjR8he37Etmvqs3X0Is-21" target="tyjR8he37Etmvqs3X0Is-22" edge="1">
          <mxGeometry relative="1" as="geometry" />
        </mxCell>
        <mxCell id="tyjR8he37Etmvqs3X0Is-21" value="Configuration&lt;div&gt;parser&lt;/div&gt;" style="rounded=0;whiteSpace=wrap;html=1;" parent="tyjR8he37Etmvqs3X0Is-15" vertex="1">
          <mxGeometry x="170" y="40" width="120" height="60" as="geometry" />
        </mxCell>
        <mxCell id="tyjR8he37Etmvqs3X0Is-22" value="Download&lt;div&gt;configuration&lt;/div&gt;" style="rounded=0;whiteSpace=wrap;html=1;" parent="tyjR8he37Etmvqs3X0Is-15" vertex="1">
          <mxGeometry x="10" y="150" width="120" height="60" as="geometry" />
        </mxCell>
        <mxCell id="tyjR8he37Etmvqs3X0Is-23" value="Testing&lt;div&gt;configuration&lt;/div&gt;" style="rounded=0;whiteSpace=wrap;html=1;" parent="tyjR8he37Etmvqs3X0Is-15" vertex="1">
          <mxGeometry x="170" y="150" width="120" height="60" as="geometry" />
        </mxCell>
        <mxCell id="tyjR8he37Etmvqs3X0Is-31" style="edgeStyle=orthogonalEdgeStyle;rounded=0;orthogonalLoop=1;jettySize=auto;html=1;exitX=0.5;exitY=1;exitDx=0;exitDy=0;" parent="1" source="tyjR8he37Etmvqs3X0Is-22" target="tyjR8he37Etmvqs3X0Is-2" edge="1">
          <mxGeometry relative="1" as="geometry" />
        </mxCell>
        <mxCell id="tyjR8he37Etmvqs3X0Is-32" style="edgeStyle=orthogonalEdgeStyle;rounded=0;orthogonalLoop=1;jettySize=auto;html=1;exitX=0.5;exitY=1;exitDx=0;exitDy=0;" parent="1" source="tyjR8he37Etmvqs3X0Is-23" target="tyjR8he37Etmvqs3X0Is-3" edge="1">
          <mxGeometry relative="1" as="geometry" />
        </mxCell>
        <mxCell id="qQq1sUfRrQj8mtIDSRJr-2" value="Report handler" style="swimlane;whiteSpace=wrap;html=1;" parent="1" vertex="1">
          <mxGeometry x="700" width="300" height="290" as="geometry" />
        </mxCell>
        <mxCell id="qQq1sUfRrQj8mtIDSRJr-5" style="edgeStyle=orthogonalEdgeStyle;rounded=0;orthogonalLoop=1;jettySize=auto;html=1;" parent="qQq1sUfRrQj8mtIDSRJr-2" source="tyjR8he37Etmvqs3X0Is-5" target="qQq1sUfRrQj8mtIDSRJr-3" edge="1">
          <mxGeometry relative="1" as="geometry" />
        </mxCell>
        <mxCell id="qQq1sUfRrQj8mtIDSRJr-6" style="edgeStyle=orthogonalEdgeStyle;rounded=0;orthogonalLoop=1;jettySize=auto;html=1;" parent="qQq1sUfRrQj8mtIDSRJr-2" source="tyjR8he37Etmvqs3X0Is-5" target="qQq1sUfRrQj8mtIDSRJr-4" edge="1">
          <mxGeometry relative="1" as="geometry" />
        </mxCell>
        <mxCell id="tyjR8he37Etmvqs3X0Is-5" value="Report&lt;div&gt;controller&lt;/div&gt;" style="rounded=0;whiteSpace=wrap;html=1;" parent="qQq1sUfRrQj8mtIDSRJr-2" vertex="1">
          <mxGeometry x="90" y="40" width="120" height="60" as="geometry" />
        </mxCell>
        <mxCell id="qQq1sUfRrQj8mtIDSRJr-9" style="edgeStyle=orthogonalEdgeStyle;rounded=0;orthogonalLoop=1;jettySize=auto;html=1;exitX=0.5;exitY=1;exitDx=0;exitDy=0;entryX=0;entryY=0.5;entryDx=0;entryDy=0;" parent="qQq1sUfRrQj8mtIDSRJr-2" source="qQq1sUfRrQj8mtIDSRJr-3" target="qQq1sUfRrQj8mtIDSRJr-8" edge="1">
          <mxGeometry relative="1" as="geometry" />
        </mxCell>
        <mxCell id="qQq1sUfRrQj8mtIDSRJr-3" value="Metrics&lt;div&gt;visualization&lt;/div&gt;" style="rounded=0;whiteSpace=wrap;html=1;" parent="qQq1sUfRrQj8mtIDSRJr-2" vertex="1">
          <mxGeometry x="10" y="140" width="120" height="60" as="geometry" />
        </mxCell>
        <mxCell id="qQq1sUfRrQj8mtIDSRJr-10" style="edgeStyle=orthogonalEdgeStyle;rounded=0;orthogonalLoop=1;jettySize=auto;html=1;entryX=1;entryY=0.5;entryDx=0;entryDy=0;" parent="qQq1sUfRrQj8mtIDSRJr-2" source="qQq1sUfRrQj8mtIDSRJr-4" target="qQq1sUfRrQj8mtIDSRJr-8" edge="1">
          <mxGeometry relative="1" as="geometry" />
        </mxCell>
        <mxCell id="qQq1sUfRrQj8mtIDSRJr-4" value="Regression&lt;div&gt;tracking&lt;/div&gt;" style="rounded=0;whiteSpace=wrap;html=1;" parent="qQq1sUfRrQj8mtIDSRJr-2" vertex="1">
          <mxGeometry x="170" y="140" width="120" height="60" as="geometry" />
        </mxCell>
        <mxCell id="qQq1sUfRrQj8mtIDSRJr-8" value="HTML&lt;div&gt;report&lt;/div&gt;" style="rounded=0;whiteSpace=wrap;html=1;" parent="qQq1sUfRrQj8mtIDSRJr-2" vertex="1">
          <mxGeometry x="90" y="220" width="120" height="60" as="geometry" />
        </mxCell>
        <mxCell id="qQq1sUfRrQj8mtIDSRJr-7" style="edgeStyle=orthogonalEdgeStyle;rounded=0;orthogonalLoop=1;jettySize=auto;html=1;exitX=0;exitY=0.5;exitDx=0;exitDy=0;" parent="1" source="tyjR8he37Etmvqs3X0Is-5" target="tyjR8he37Etmvqs3X0Is-4" edge="1">
          <mxGeometry relative="1" as="geometry" />
        </mxCell>
      </root>
    </mxGraphModel>
  </diagram>
</mxfile>
